# xmcd
#
# Track frame offsets: 
#        150
#        17805
#        34510
#        51955
#        74650
#        87525
#        100260
#        111920
#        122300
#        137585
#        163200
#        174935
#        190115
#        207885
#
# Disc length: 2933 seconds
#
# Revision: 0
# Processed by: cddbd v1.5.2PL0 Copyright (c) Steve Scherf et al.
# Submitted via: ExactAudioCopy v0.95b4
#
DISCID=bf0b730e
DTITLE=Various Artist - Románticas en Inglés
DYEAR=1997
DGENRE=Ballad
TTITLE0=Samantha Sang - Emotions
TTITLE1=Mary MacGregor - Torn Between Two Lovers
TTITLE2=Air Supply - All Out of Love
TTITLE3=Viola Wills - Gonna Get Along Without You Now
TTITLE4=The Archies - Sugar Sugar
TTITLE5=Christie - Yellow River
TTITLE6=The Platters - Only You
TTITLE7=Del Shannon - Runaway
TTITLE8=Joe Dolan - I Need You
TTITLE9=Gloria Gaynor - Careless Whisper
TTITLE10=Herman's Hermits - There's a Kind of Hush All Over the World
TTITLE11=Elkie Brothers - Sunshine After the Rain
TTITLE12=Lobo - I'd Love You to Want Me
TTITLE13=Nilsson - Everybody's Talking
EXTD=
EXTT0=
EXTT1=
EXTT2=
EXTT3=
EXTT4=
EXTT5=
EXTT6=
EXTT7=
EXTT8=
EXTT9=
EXTT10=
EXTT11=
EXTT12=
EXTT13=
PLAYORDER=
